<?xml version="1.0" encoding="UTF-8"?>
<svg xmlns="http://www.w3.org/2000/svg" xmlns:xlink="http://www.w3.org/1999/xlink" width="15pt" height="15pt" viewBox="0 0 15 15" version="1.1">
<g id="surface25853456">
<path style=" stroke:none;fill-rule:nonzero;fill:rgb(0%,84.313725%,100%);fill-opacity:1;" d="M 14.769531 7.5 C 14.769531 3.484375 11.511719 0.230469 7.5 0.230469 C 3.484375 0.230469 0.230469 3.488281 0.230469 7.5 C 0.230469 11.515625 3.488281 14.769531 7.5 14.769531 C 11.515625 14.769531 14.769531 11.511719 14.769531 7.5 Z M 14.769531 7.5 "/>
<path style=" stroke:none;fill-rule:nonzero;fill:rgb(100%,100%,100%);fill-opacity:1;" d="M 9.46875 10.765625 C 9.429688 10.707031 9.351562 10.683594 9.285156 10.71875 C 8.5625 11.058594 7.746094 11.417969 7.585938 11.449219 C 7.582031 11.445312 7.574219 11.441406 7.566406 11.429688 C 7.546875 11.398438 7.535156 11.359375 7.535156 11.3125 C 7.535156 10.90625 7.84375 9.664062 8.449219 7.628906 C 8.960938 5.917969 9.019531 5.5625 9.019531 5.445312 C 9.019531 5.265625 8.949219 5.113281 8.820312 5.003906 C 8.691406 4.902344 8.519531 4.847656 8.300781 4.847656 C 7.933594 4.847656 7.511719 4.988281 7.007812 5.273438 C 6.519531 5.546875 5.972656 6.015625 5.386719 6.664062 C 5.339844 6.714844 5.335938 6.789062 5.375 6.847656 C 5.410156 6.902344 5.484375 6.921875 5.550781 6.898438 C 5.753906 6.8125 6.792969 6.390625 6.945312 6.296875 C 7.066406 6.21875 7.175781 6.179688 7.261719 6.179688 C 7.265625 6.179688 7.269531 6.179688 7.273438 6.179688 C 7.273438 6.183594 7.273438 6.195312 7.273438 6.203125 C 7.273438 6.292969 7.257812 6.402344 7.21875 6.519531 C 6.335938 9.378906 5.90625 11.132812 5.90625 11.878906 C 5.90625 12.144531 5.980469 12.355469 6.125 12.507812 C 6.269531 12.667969 6.46875 12.746094 6.710938 12.746094 C 6.972656 12.746094 7.289062 12.636719 7.683594 12.414062 C 8.058594 12.195312 8.640625 11.71875 9.453125 10.957031 C 9.5 10.902344 9.511719 10.824219 9.46875 10.765625 Z M 9.4375 2.476562 C 9.296875 2.332031 9.109375 2.257812 8.890625 2.257812 C 8.617188 2.257812 8.378906 2.363281 8.183594 2.578125 C 7.988281 2.789062 7.890625 3.042969 7.890625 3.34375 C 7.890625 3.578125 7.964844 3.773438 8.105469 3.921875 C 8.25 4.074219 8.429688 4.152344 8.648438 4.152344 C 8.910156 4.152344 9.144531 4.035156 9.351562 3.8125 C 9.554688 3.589844 9.65625 3.332031 9.65625 3.039062 C 9.65625 2.8125 9.582031 2.625 9.4375 2.476562 Z M 9.4375 2.476562 "/>
</g>
</svg>
